<svg id="图层_1" data-name="图层 1" xmlns="http://www.w3.org/2000/svg" viewBox="0 0 260.82 53.96"><defs><style>.cls-1{fill:#29d398;}.cls-2{fill:#2f394e;}.cls-3{fill:#fff;}</style></defs><path class="cls-1" d="M32.51,0a13.81,13.81,0,0,1,4.16,1.1C39.8,2.16,42.91,3.29,46,4.41c2.45.89,4.89,1.79,7.34,2.67,3,1.1,6,2.18,9.06,3.31a5,5,0,0,1,1.69,1c1.79,1.68.9,3.67-1.14,4.54-2.26,1-4.6,1.74-6.91,2.58s-4.5,1.62-6.75,2.42l-8.88,3.19c-1.6.58-3.22,1.12-4.8,1.74A9,9,0,0,1,29,25.73c-3.91-1.43-7.83-2.82-11.75-4.24-3.33-1.21-6.66-2.44-10-3.66-1.69-.61-3.4-1.17-5-1.89A4.46,4.46,0,0,1,.4,14.49a2.25,2.25,0,0,1,.68-3.19A11,11,0,0,1,3.66,10c3.08-1.15,6.18-2.24,9.28-3.36L23,3.06c2.21-.8,4.39-1.65,6.6-2.41A27,27,0,0,1,32.51,0Zm-16,13.3,1,.43,12,4.35a8.24,8.24,0,0,0,5.12.25c1.25-.35,2.46-.84,3.69-1.28,2.18-.78,4.36-1.56,6.53-2.36,1.18-.42,2.35-.87,3.63-1.35a4.37,4.37,0,0,0-.51-.25c-4.36-1.58-8.71-3.18-13.09-4.7A6.24,6.24,0,0,0,31,8.17c-1.63.48-3.24,1-4.85,1.58-2.21.77-4.41,1.57-6.61,2.37Z"/><path class="cls-2" d="M5.55,37.39c1.51-.18,2.9.5,4.33,1q5.25,1.86,10.49,3.75L27.9,44.9c1.74.64,3.48,1.39,5.38,1.07A21.13,21.13,0,0,0,36.77,45c4.75-1.68,9.48-3.41,14.21-5.12a69,69,0,0,1,6.7-2.33c2.39-.59,4.8-.39,6.69,1.54a2.13,2.13,0,0,1,0,3.17A7.47,7.47,0,0,1,62,43.8c-2.21.88-4.48,1.63-6.73,2.44l-8.88,3.19c-2.2.8-4.4,1.62-6.6,2.41-1.83.64-3.65,1.32-5.5,1.86a8.65,8.65,0,0,1-5.57-.58C24.91,51.7,21.05,50.35,17.2,49L9.6,46.19c-2.51-.92-5-1.8-7.51-2.8A4,4,0,0,1,.39,42c-1-1.52.06-3,1.33-3.7A6.69,6.69,0,0,1,5.55,37.39Z"/><path class="cls-2" d="M37,31.44c2.29-.84,4.59-1.63,6.88-2.45,3.77-1.34,7.54-2.67,11.28-4.06a11.42,11.42,0,0,1,5-1A7.26,7.26,0,0,1,63.51,25c1.95,1.27,2,3.6-.09,4.69a32.69,32.69,0,0,1-4.2,1.71C57,32.2,54.68,33,52.41,33.8L43.53,37c-2.2.8-4.41,1.58-6.6,2.41a10,10,0,0,1-5.25,1,21.39,21.39,0,0,1-3.48-1c-3.5-1.23-7-2.5-10.48-3.77-2.89-1-5.77-2.11-8.66-3.16-2.18-.79-4.37-1.55-6.53-2.39a4.56,4.56,0,0,1-1.67-1c-1.41-1.44-1-3,.55-4.07a7.48,7.48,0,0,1,6.77-.68c3.47,1.18,6.91,2.44,10.36,3.68,2.89,1,5.78,2.11,8.66,3.16,2,.74,4,1.64,6.27,1.31.48-.07,1.39-.31,1.39-.31"/><path class="cls-3" d="M78.12,15.15a4,4,0,0,1-1.27-3,4,4,0,0,1,1.27-3,4.41,4.41,0,0,1,6.09,0,4,4,0,0,1,1.27,3,4,4,0,0,1-1.27,3,4.44,4.44,0,0,1-6.09,0Zm6.34,5.73V45.49h-6.6V20.88Z"/><path class="cls-3" d="M116.93,45.49v-16H99.17v16H92.32V10h6.85V23.42h17.76V10h6.85V45.49Z"/><path class="cls-3" d="M155.24,20.88V45.49H148.9v-2A10.3,10.3,0,0,1,142.05,46a11.7,11.7,0,0,1-9.29-4.16,12.76,12.76,0,0,1-3.14-8.62,12.73,12.73,0,0,1,3.52-9.13,11.37,11.37,0,0,1,8.55-3.71,11,11,0,0,1,7.21,2.49v-2Zm-6.6,16V29.5a7.25,7.25,0,0,0-6.09-3,5.8,5.8,0,0,0-4.56,2,6.87,6.87,0,0,0-1.78,4.74A6.58,6.58,0,0,0,138.06,38a6.24,6.24,0,0,0,4.65,1.91A6.84,6.84,0,0,0,148.64,36.86Z"/><path class="cls-3" d="M178.58,20.58l-.76,6.13a8.6,8.6,0,0,0-2.39-.25,6.3,6.3,0,0,0-3.63,1.12A7.12,7.12,0,0,0,169.44,30V45.49h-6.59V20.88h6.34v2.49c1.62-2,4-3,7.15-3A16.24,16.24,0,0,1,178.58,20.58Z"/><path class="cls-3" d="M190,45.49h-6.34v-36h6.6v13.2a10.81,10.81,0,0,1,6.95-2.29,11.38,11.38,0,0,1,8.55,3.71,12.73,12.73,0,0,1,3.52,9.13,12.81,12.81,0,0,1-3.14,8.62A11.72,11.72,0,0,1,196.84,46,10.28,10.28,0,0,1,190,43.51Zm.26-16v7.36a6.84,6.84,0,0,0,5.93,3A6.2,6.2,0,0,0,200.82,38a6.55,6.55,0,0,0,1.86-4.79,6.91,6.91,0,0,0-1.78-4.74,5.82,5.82,0,0,0-4.57-2A7.24,7.24,0,0,0,190.25,29.5Z"/><path class="cls-3" d="M217.08,42.29a12.28,12.28,0,0,1-3.75-9.08,12.36,12.36,0,0,1,3.75-9.11,13.56,13.56,0,0,1,18.68,0,12.36,12.36,0,0,1,3.75,9.11,12.28,12.28,0,0,1-3.75,9.08,13.64,13.64,0,0,1-18.68,0Zm4.67-13.88a6.8,6.8,0,0,0-1.82,4.8A6.71,6.71,0,0,0,221.75,38a6.61,6.61,0,0,0,9.34,0,6.67,6.67,0,0,0,1.82-4.77,6.76,6.76,0,0,0-1.82-4.8,6.57,6.57,0,0,0-9.34,0Z"/><path class="cls-3" d="M260.82,20.58l-.76,6.13a8.51,8.51,0,0,0-2.38-.25,6.3,6.3,0,0,0-3.63,1.12A7,7,0,0,0,251.69,30V45.49h-6.6V20.88h6.34v2.49c1.63-2,4-3,7.16-3A16.26,16.26,0,0,1,260.82,20.58Z"/></svg>